<?xml version="1.0" encoding="UTF-8" standalone="no"?>
<svg width="12px" height="22px" viewBox="0 0 12 22" version="1.1" xmlns="http://www.w3.org/2000/svg" xmlns:xlink="http://www.w3.org/1999/xlink">
    <!-- Generator: sketchtool 3.8.1 (29687) - http://www.bohemiancoding.com/sketch -->
    <title>FB</title>
    <desc>Created with sketchtool.</desc>
    <defs></defs>
    <g id="Design" stroke="none" stroke-width="1" fill="none" fill-rule="evenodd" opacity="0.5">
        <g id="design" transform="translate(-977.000000, -6730.000000)">
            <g id="Group-19" transform="translate(0.000000, 6497.000000)">
                <g id="Group-5" transform="translate(962.000000, 223.000000)">
                    <g id="FB" opacity="0.6">
                        <polygon id="container" points="0 0 42 0 42 42 0 42"></polygon>
                        <path d="M22.4843142,31.7800007 L22.4843142,21.8451775 L25.8839412,21.8451775 L26.3928122,17.9733312 L22.4843142,17.9733312 L22.4843142,15.5013284 C22.4843142,14.3803386 22.8016114,13.6164467 24.440425,13.6164467 L26.5305886,13.6154855 L26.5305886,10.1525477 C26.1689011,10.1054473 24.9283259,10 23.4848097,10 C20.4713681,10 18.4082503,11.8043304 18.4082503,15.1179887 L18.4082503,17.9733312 L15,17.9733312 L15,21.8451775 L18.4082503,21.8451775 L18.4082503,31.7800007 L22.4843142,31.7800007" id="logo" fill="#FFFFFF"></path>
                    </g>
                </g>
            </g>
        </g>
    </g>
</svg>