<?xml version="1.0" encoding="UTF-8" standalone="no"?>
<svg width="57px" height="66px" viewBox="0 0 57 66" version="1.1" xmlns="http://www.w3.org/2000/svg" xmlns:xlink="http://www.w3.org/1999/xlink">
    <!-- Generator: sketchtool 3.8.1 (29687) - http://www.bohemiancoding.com/sketch -->
    <title>icon7</title>
    <desc>Created with sketchtool.</desc>
    <defs></defs>
    <g id="Design" stroke="none" stroke-width="1" fill="none" fill-rule="evenodd">
        <g id="design" transform="translate(-983.000000, -3895.000000)" stroke="#00ADEE">
            <g id="Group-16" transform="translate(0.000000, 3623.000000)">
                <g id="icon7" transform="translate(983.000000, 272.000000)">
                    <path d="M0.558823529,54.8135593 L0.558823529,28.5254237 C0.558823529,13.0803051 13.0686471,0.559322034 28.5,0.559322034 L28.5,0.559322034 C43.9313529,0.559322034 56.4411765,13.0803051 56.4411765,28.5254237 L56.4411765,54.8135593" id="Stroke-1"></path>
                    <path d="M56.4411765,54.2542373 L51.9705882,54.2542373 C49.5017059,54.2542373 47.5,52.2507458 47.5,49.779661 L47.5,40.8305085 C47.5,38.3594237 49.5017059,36.3559322 51.9705882,36.3559322 L56.4411765,36.3559322 L56.4411765,54.2542373 L56.4411765,54.2542373 Z" id="Stroke-3"></path>
                    <path d="M5.02941176,54.2542373 L0.558823529,54.2542373 L0.558823529,36.3559322 L5.02941176,36.3559322 C7.49829412,36.3559322 9.5,38.3594237 9.5,40.8305085 L9.5,49.779661 C9.5,52.2507458 7.49829412,54.2542373 5.02941176,54.2542373 L5.02941176,54.2542373 Z" id="Stroke-5"></path>
                    <path d="M56.4411765,54.8135593 L56.4411765,54.8135593 C56.4411765,59.4469831 52.6881176,63.2033898 48.0588235,63.2033898 L38,63.2033898" id="Stroke-7"></path>
                    <path d="M35.2058824,65.440678 L29.6176471,65.440678 C28.3826471,65.440678 27.3823529,64.4394915 27.3823529,63.2033898 L27.3823529,63.2033898 C27.3823529,61.9672881 28.3826471,60.9661017 29.6176471,60.9661017 L35.2058824,60.9661017 C36.4408824,60.9661017 37.4411765,61.9672881 37.4411765,63.2033898 L37.4411765,63.2033898 C37.4411765,64.4394915 36.4408824,65.440678 35.2058824,65.440678 L35.2058824,65.440678 Z" id="Stroke-9"></path>
                </g>
            </g>
        </g>
    </g>
</svg>