<?xml version="1.0" encoding="UTF-8" standalone="no"?>
<svg width="121px" height="16px" viewBox="0 0 121 16" version="1.1" xmlns="http://www.w3.org/2000/svg" xmlns:xlink="http://www.w3.org/1999/xlink">
    <!-- Generator: Sketch 3.8.1 (29687) - http://www.bohemiancoding.com/sketch -->
    <title>white</title>
    <desc>Created with Sketch.</desc>
    <defs></defs>
    <g id="Design" stroke="none" stroke-width="1" fill="none" fill-rule="evenodd">
        <g id="Group-21">
            <path d="M3.6484375,0.908203125 L0.064453125,0.908203125 L0.064453125,10 C0.064453125,13.1640625 2.46679687,15.2441406 6.13867187,15.2441406 C9.80078125,15.2441406 12.203125,13.1640625 12.203125,10 L12.203125,0.908203125 L8.61914062,0.908203125 L8.61914062,9.61914062 C8.61914062,11.2597656 7.73046875,12.2363281 6.13867187,12.2363281 C4.53710938,12.2363281 3.6484375,11.2597656 3.6484375,9.61914062 L3.6484375,0.908203125 Z M18.3138021,15 L18.3138021,6.72851562 L18.3919271,6.72851562 L24.3977865,15 L27.2298177,15 L27.2298177,0.908203125 L23.8313802,0.908203125 L23.8313802,9.1015625 L23.7532552,9.1015625 L17.7766927,0.908203125 L14.9153646,0.908203125 L14.9153646,15 L18.3138021,15 Z M33.5260417,15 L33.5260417,0.908203125 L29.9420574,0.908203125 L29.9420574,15 L33.5260417,15 Z" id="UNI" fill="#18C3FF"></path>
            <path d="M49.0332031,9.04296875 L49.0332031,7.31445312 L42.9980469,7.31445312 L42.9980469,9.77539062 L45.5761719,9.77539062 L45.5664062,9.99023438 C45.46875,11.40625 44.3359375,12.3632812 42.7148438,12.3632812 C40.6542969,12.3632812 39.3261719,10.6738281 39.3261719,7.88085938 C39.3261719,5.13671875 40.5273438,3.54492188 42.5585938,3.54492188 C43.9355469,3.54492188 44.9902344,4.30664062 45.3417969,5.55664062 L48.8867188,5.55664062 C48.5253906,2.68554688 45.9667969,0.6640625 42.5488281,0.6640625 C38.2910156,0.6640625 35.6738281,3.359375 35.6738281,7.9296875 C35.6738281,12.5585938 38.2910156,15.2441406 42.6367188,15.2441406 C46.6503906,15.2441406 49.0332031,12.890625 49.0332031,9.04296875 L49.0332031,9.04296875 Z M60.0324219,15 L63.8410156,15 L59.1046875,0.908203125 L54.7199219,0.908203125 L49.9835938,15 L53.6359375,15 L54.534375,11.9042969 L59.14375,11.9042969 L60.0324219,15 Z M56.8,3.89648438 L56.878125,3.89648438 L58.440625,9.32617188 L55.2277344,9.32617188 L56.8,3.89648438 Z M69.3226562,3.61328125 L71.4320312,3.61328125 C72.7113281,3.61328125 73.5414062,4.42382812 73.5414062,5.625 C73.5414062,6.84570312 72.7601562,7.6171875 71.4417969,7.6171875 L69.3226562,7.6171875 L69.3226562,3.61328125 Z M69.3226562,10.0683594 L71.178125,10.0683594 L73.5902344,15 L77.6136719,15 L74.8011719,9.54101562 C76.3441406,8.8671875 77.2035156,7.28515625 77.2035156,5.55664062 C77.2035156,2.64648438 75.3089844,0.908203125 71.7933594,0.908203125 L65.7386719,0.908203125 L65.7386719,15 L69.3226562,15 L69.3226562,10.0683594 Z M88.8179688,15 L92.6265625,15 L87.8902344,0.908203125 L83.5054688,0.908203125 L78.7691406,15 L82.4214844,15 L83.3199219,11.9042969 L87.9292969,11.9042969 L88.8179688,15 Z M85.5855469,3.89648438 L85.6636719,3.89648438 L87.2261719,9.32617188 L84.0132813,9.32617188 L85.5855469,3.89648438 Z M97.9226562,15 L97.9226562,6.72851562 L98.0007812,6.72851562 L104.006641,15 L106.838672,15 L106.838672,0.908203125 L103.440234,0.908203125 L103.440234,9.1015625 L103.362109,9.1015625 L97.3855469,0.908203125 L94.5242187,0.908203125 L94.5242187,15 L97.9226562,15 Z M116.392578,15 L116.392578,3.79882812 L120.298828,3.79882812 L120.298828,0.908203125 L108.902344,0.908203125 L108.902344,3.79882812 L112.808594,3.79882812 L112.808594,15 L116.392578,15 Z" id="Shape" fill="#FFFFFF"></path>
        </g>
    </g>
</svg>