<?xml version="1.0" encoding="UTF-8" standalone="no"?>
<svg width="25px" height="20px" viewBox="0 0 25 20" version="1.1" xmlns="http://www.w3.org/2000/svg" xmlns:xlink="http://www.w3.org/1999/xlink">
    <!-- Generator: sketchtool 3.8.1 (29687) - http://www.bohemiancoding.com/sketch -->
    <title>TW</title>
    <desc>Created with sketchtool.</desc>
    <defs></defs>
    <g id="Design" stroke="none" stroke-width="1" fill="none" fill-rule="evenodd" opacity="0.5">
        <g id="design" transform="translate(-1053.000000, -6732.000000)">
            <g id="Group-19" transform="translate(0.000000, 6497.000000)">
                <g id="Group-5" transform="translate(962.000000, 223.000000)">
                    <g id="TW" opacity="0.6" transform="translate(82.000000, 0.000000)">
                        <polygon id="container" points="0 0 42 0 42 42 0 42"></polygon>
                        <path d="M16.8448905,31.9103139 C13.9548358,31.9103139 11.264781,31.0775785 9,29.6503139 C9.40036496,29.6967713 9.80775547,29.7205381 10.2208029,29.7205381 C12.6184307,29.7205381 14.8250912,28.9163229 16.5765511,27.5671749 C14.337135,27.5265471 12.4471715,26.0721973 11.7959854,24.0736323 C12.1083942,24.1323767 12.4290146,24.1638565 12.7587591,24.1638565 C13.2255474,24.1638565 13.677646,24.1024215 14.1071168,23.9874439 C11.7658759,23.5253812 10.0019161,21.4921973 10.0019161,19.0548879 C10.0019161,19.033722 10.0019161,19.0126457 10.002281,18.9916592 C10.6923358,19.3684305 11.4813869,19.5947085 12.3203467,19.6208072 C10.9471715,18.7187444 10.0436131,17.1790135 10.0436131,15.4338117 C10.0436131,14.5119283 10.2959854,13.6478027 10.7364964,12.904843 C13.2605839,15.9482511 17.0314781,17.9509417 21.2847628,18.1607175 C21.1975365,17.7925561 21.1521898,17.4086099 21.1521898,17.0143498 C21.1521898,14.2363229 23.4436131,11.9840359 26.2699818,11.9840359 C27.7418796,11.9840359 29.0718978,12.5949776 30.0054745,13.5726457 C31.1711679,13.3469955 32.2664234,12.9283408 33.2552007,12.3519283 C32.8730839,13.5265471 32.0616788,14.5123767 31.0050182,15.1349776 C32.0402372,15.0133632 33.0265511,14.7429596 33.9443431,14.34287 C33.2582117,15.3516592 32.3905109,16.2376682 31.3906934,16.9469058 C31.4005474,17.1626009 31.4054745,17.3795516 31.4054745,17.5976682 C31.4054745,24.2451121 26.2580292,31.9103139 16.8448905,31.9103139" id="logo" fill="#FFFFFF"></path>
                    </g>
                </g>
            </g>
        </g>
    </g>
</svg>