<?xml version="1.0" encoding="UTF-8" standalone="no"?>
<svg width="29px" height="16px" viewBox="0 0 29 16" version="1.1" xmlns="http://www.w3.org/2000/svg" xmlns:xlink="http://www.w3.org/1999/xlink">
    <!-- Generator: sketchtool 3.8.1 (29687) - http://www.bohemiancoding.com/sketch -->
    <title>VK</title>
    <desc>Created with sketchtool.</desc>
    <defs></defs>
    <g id="Design" stroke="none" stroke-width="1" fill="none" fill-rule="evenodd" opacity="0.5">
        <g id="design" transform="translate(-1215.000000, -6733.000000)">
            <g id="Group-19" transform="translate(0.000000, 6497.000000)">
                <g id="Group-5" transform="translate(962.000000, 223.000000)">
                    <g id="VK" opacity="0.6" transform="translate(246.000000, 0.000000)">
                        <polygon id="container" points="0 0 42 0 42 42 0 42"></polygon>
                        <path d="M20.7305922,28.9428585 L22.4079676,28.9428585 C22.4079676,28.9428585 22.9145204,28.8870251 23.1735284,28.6083519 C23.4115864,28.3522097 23.4039773,27.8715478 23.4039773,27.8715478 C23.4039773,27.8715478 23.3711689,25.620817 24.4156005,25.2893738 C25.4456043,24.9626739 26.7679186,27.4646059 28.1693878,28.4267202 C29.2292354,29.1545316 30.0346207,28.9952333 30.0346207,28.9952333 L33.7823799,28.9428585 C33.7823799,28.9428585 35.7427767,28.8219025 34.8131743,27.2805037 C34.7370827,27.1546067 34.2716392,26.1403153 32.0265411,24.0563931 C29.6763971,21.8752318 29.9914362,22.2281191 32.8221432,18.4552595 C34.5460631,16.157589 35.2351369,14.7549339 35.0198075,14.1542054 C34.8146566,13.5818383 33.5465947,13.7330334 33.5465947,13.7330334 L29.3269686,13.7591219 C29.3269686,13.7591219 29.013906,13.7165304 28.7820736,13.8552741 C28.555281,13.9909543 28.4097187,14.3079698 28.4097187,14.3079698 C28.4097187,14.3079698 27.7415948,16.0858455 26.8512241,17.5980923 C24.9722552,20.788604 24.2208257,20.9574879 23.9136923,20.7590567 C23.1991228,20.2972695 23.3776911,18.9042988 23.3776911,17.914416 C23.3776911,14.8223294 23.8466922,13.5331199 22.464394,13.1994039 C22.0057691,13.0887251 21.6679025,13.0154993 20.494807,13.003542 C18.9890823,12.9882249 17.7149924,13.0081866 16.9934067,13.3616668 C16.5133377,13.5967602 16.1429593,14.1205077 16.3686648,14.1506479 C16.6476345,14.1878043 17.2790961,14.3211129 17.6138992,14.7766744 C18.0464356,15.3651492 18.0313161,16.6861787 18.0313161,16.6861787 C18.0313161,16.6861787 18.2798491,20.3260262 17.4510434,20.7780302 C16.8823327,21.0881283 16.1020477,20.4550855 14.4268463,17.5604418 C13.5686909,16.0777423 12.9205287,14.4386102 12.9205287,14.4386102 C12.9205287,14.4386102 12.7957187,14.1323661 12.5727801,13.9684233 C12.3024078,13.7697945 11.9246179,13.706846 11.9246179,13.706846 L7.91468839,13.7330334 C7.91468839,13.7330334 7.31287286,13.7498328 7.09171307,14.0116078 C6.89496189,14.244626 7.07600064,14.7259796 7.07600064,14.7259796 C7.07600064,14.7259796 10.2151258,22.0705007 13.769889,25.7717156 C17.0296737,29.1655994 20.7305922,28.9428585 20.7305922,28.9428585" id="logo" fill="#FFFFFF"></path>
                    </g>
                </g>
            </g>
        </g>
    </g>
</svg>