<?xml version="1.0" encoding="UTF-8" standalone="no"?>
<svg width="15px" height="15px" viewBox="0 0 15 15" version="1.1" xmlns="http://www.w3.org/2000/svg" xmlns:xlink="http://www.w3.org/1999/xlink">
    <!-- Generator: sketchtool 3.8.1 (29687) - http://www.bohemiancoding.com/sketch -->
    <title>wrong</title>
    <desc>Created with sketchtool.</desc>
    <defs></defs>
    <g id="Design" stroke="none" stroke-width="1" fill="none" fill-rule="evenodd">
        <g id="Agent" transform="translate(-1595.000000, -587.000000)" fill="#D0011B">
            <path d="M1609.47457,598.938126 L1605.05892,594.523414 L1609.47457,590.108701 C1610.17217,589.410159 1610.17217,588.279722 1609.47457,587.582119 C1608.77696,586.885454 1607.64559,586.885454 1606.94798,587.582119 L1602.53233,591.99777 L1598.06129,587.526723 C1597.36087,586.824426 1596.22574,586.824426 1595.52532,587.526723 C1594.82489,588.225266 1594.82489,589.361336 1595.52532,590.061756 L1599.9973,594.532803 L1595.57977,598.951271 C1594.88217,599.648874 1594.88217,600.779311 1595.57977,601.476915 C1596.27737,602.174518 1597.40781,602.174518 1598.10542,601.476915 L1602.52388,597.059385 L1606.93953,601.474098 C1607.63995,602.175457 1608.77509,602.175457 1609.47551,601.474098 C1610.17499,600.774617 1610.17499,599.638547 1609.47457,598.938126 L1609.47457,598.938126 Z" id="wrong"></path>
        </g>
    </g>
</svg>