<?xml version="1.0" encoding="UTF-8" standalone="no"?>
<svg width="48px" height="59px" viewBox="0 0 48 59" version="1.1" xmlns="http://www.w3.org/2000/svg" xmlns:xlink="http://www.w3.org/1999/xlink">
    <!-- Generator: Sketch 3.8.2 (29753) - http://www.bohemiancoding.com/sketch -->
    <title>Page 1</title>
    <desc>Created with Sketch.</desc>
    <defs></defs>
    <g id="Design" stroke="none" stroke-width="1" fill="none" fill-rule="evenodd" stroke-linecap="round" stroke-linejoin="round">
        <g id="design-with-content" transform="translate(-699.000000, -1633.000000)" stroke="#00ADEE">
            <g id="Page-1" transform="translate(700.000000, 1634.000000)">
                <path d="M5.57608696,40.8913043 L6.97878261,36.2148261 C8.51406522,31.0990761 9.29347826,25.7863043 9.29347826,20.4456522 L9.29347826,20.4456522 C9.29347826,12.9179348 15.3961957,6.81521739 22.923913,6.81521739 L22.923913,6.81521739 C30.4516304,6.81521739 36.5543478,12.9179348 36.5543478,20.4456522 L36.5543478,20.4456522 C36.5543478,25.7863043 37.3337609,31.0990761 38.8690435,36.2148261 L40.2717391,40.8913043" id="Stroke-1"></path>
                <path d="M41.5108696,49.5652174 L4.33695652,49.5652174 C1.94171739,49.5652174 0,47.6235 0,45.2282609 L0,45.2282609 C0,42.8330217 1.94171739,40.8913043 4.33695652,40.8913043 L41.5108696,40.8913043 C43.9061087,40.8913043 45.8478261,42.8330217 45.8478261,45.2282609 L45.8478261,45.2282609 C45.8478261,47.6235 43.9061087,49.5652174 41.5108696,49.5652174 L41.5108696,49.5652174 Z" id="Stroke-3"></path>
                <path d="M19.2065217,6.81521739 L19.2065217,3.7173913 C19.2065217,1.66415217 20.8706739,0 22.923913,0 L22.923913,0 C24.9771522,0 26.6413043,1.66415217 26.6413043,3.7173913 L26.6413043,6.81521739" id="Stroke-5"></path>
                <path d="M31.5978261,49.5652174 L31.5978261,49.5652174 C31.5978261,53.6710761 28.2689022,57 24.1630435,57 L21.6847826,57 C17.5789239,57 14.25,53.6710761 14.25,49.5652174 L14.25,49.5652174" id="Stroke-7"></path>
            </g>
        </g>
    </g>
</svg>