<?xml version="1.0" encoding="UTF-8" standalone="no"?>
<svg width="56px" height="35px" viewBox="0 0 56 35" version="1.1" xmlns="http://www.w3.org/2000/svg" xmlns:xlink="http://www.w3.org/1999/xlink">
    <!-- Generator: Sketch 3.8.2 (29753) - http://www.bohemiancoding.com/sketch -->
    <title>Page 1</title>
    <desc>Created with Sketch.</desc>
    <defs>
        <polygon id="path-1" points="0 35 56 35 56 0 0 0"></polygon>
    </defs>
    <g id="Design" stroke="none" stroke-width="1" fill="none" fill-rule="evenodd">
        <g id="design-with-content" transform="translate(-880.000000, -3751.000000)">
            <g id="Group-5" transform="translate(133.000000, 3388.000000)">
                <g id="Page-1" transform="translate(747.000000, 363.000000)">
                    <path d="M50.1666667,33.8333333 L5.83333333,33.8333333 C3.25616667,33.8333333 1.16666667,31.7438333 1.16666667,29.1666667 L1.16666667,5.83333333 C1.16666667,3.25616667 3.25616667,1.16666667 5.83333333,1.16666667 L50.1666667,1.16666667 C52.7438333,1.16666667 54.8333333,3.25616667 54.8333333,5.83333333 L54.8333333,29.1666667 C54.8333333,31.7438333 52.7438333,33.8333333 50.1666667,33.8333333 L50.1666667,33.8333333 Z" id="Stroke-1" stroke="#54D98D" stroke-linecap="round"></path>
                    <mask id="mask-2" fill="white">
                        <use xlink:href="#path-1"></use>
                    </mask>
                    <g id="Clip-4"></g>
                    <polygon id="Stroke-3" stroke="#54D98D" stroke-linecap="round" mask="url(#mask-2)" points="1.16666667 16.3333333 54.8333333 16.3333333 54.8333333 8.75 1.16666667 8.75"></polygon>
                    <path d="M7.58333333,25 L23.3333333,25" id="Stroke-5" stroke="#54D98D" stroke-linecap="round" mask="url(#mask-2)"></path>
                    <path d="M1.75,16.3333333 L9.625,8.45833333" id="Stroke-6" stroke="#54D98D" stroke-linecap="round" mask="url(#mask-2)"></path>
                    <path d="M7.58333333,16.3333333 L15.4583333,8.45833333" id="Stroke-7" stroke="#54D98D" stroke-linecap="round" mask="url(#mask-2)"></path>
                    <path d="M13.4166667,16.3333333 L21.2916667,8.45833333" id="Stroke-8" stroke="#54D98D" stroke-linecap="round" mask="url(#mask-2)"></path>
                    <path d="M19.25,16.3333333 L27.125,8.45833333" id="Stroke-9" stroke="#54D98D" stroke-linecap="round" mask="url(#mask-2)"></path>
                    <path d="M25.0833333,16.3333333 L32.9583333,8.45833333" id="Stroke-10" stroke="#54D98D" stroke-linecap="round" mask="url(#mask-2)"></path>
                    <path d="M30.9166667,16.3333333 L38.7916667,8.45833333" id="Stroke-11" stroke="#54D98D" stroke-linecap="round" mask="url(#mask-2)"></path>
                    <path d="M36.75,16.3333333 L44.625,8.45833333" id="Stroke-12" stroke="#54D98D" stroke-linecap="round" mask="url(#mask-2)"></path>
                    <path d="M42.5833333,16.3333333 L50.4583333,8.45833333" id="Stroke-13" stroke="#54D98D" stroke-linecap="round" mask="url(#mask-2)"></path>
                    <path d="M48.4166667,16.3333333 L54.8333333,9.91666667" id="Stroke-14" stroke="#54D98D" stroke-linecap="round" mask="url(#mask-2)"></path>
                </g>
            </g>
        </g>
    </g>
</svg>