<?xml version="1.0" encoding="UTF-8" standalone="no"?>
<svg width="116px" height="16px" viewBox="0 0 116 16" version="1.1" xmlns="http://www.w3.org/2000/svg" xmlns:xlink="http://www.w3.org/1999/xlink">
    <!-- Generator: Sketch 3.8.1 (29687) - http://www.bohemiancoding.com/sketch -->
    <title>darklogo</title>
    <desc>Created with Sketch.</desc>
    <defs></defs>
    <g id="Design" stroke="none" stroke-width="1" fill="none" fill-rule="evenodd">
        <g id="Group-11">
            <path d="M3.6484375,0.908203125 L0.064453125,0.908203125 L0.064453125,10 C0.064453125,13.1640625 2.46679687,15.2441406 6.13867187,15.2441406 C9.80078125,15.2441406 12.203125,13.1640625 12.203125,10 L12.203125,0.908203125 L8.61914062,0.908203125 L8.61914062,9.61914062 C8.61914062,11.2597656 7.73046875,12.2363281 6.13867187,12.2363281 C4.53710938,12.2363281 3.6484375,11.2597656 3.6484375,9.61914062 L3.6484375,0.908203125 Z M18.3138021,15 L18.3138021,6.72851562 L18.3919271,6.72851562 L24.3977865,15 L27.2298177,15 L27.2298177,0.908203125 L23.8313802,0.908203125 L23.8313802,9.1015625 L23.7532552,9.1015625 L17.7766927,0.908203125 L14.9153646,0.908203125 L14.9153646,15 L18.3138021,15 Z M33.5260417,15 L33.5260417,0.908203125 L29.9420574,0.908203125 L29.9420574,15 L33.5260417,15 Z" id="UNI" fill="#00D47F"></path>
            <path d="M39.6484375,15 L39.6484375,9.74609375 L45.1074219,9.74609375 L45.1074219,7.00195312 L39.6484375,7.00195312 L39.6484375,3.79882812 L45.6542969,3.79882812 L45.6542969,0.908203125 L36.0644531,0.908203125 L36.0644531,15 L39.6484375,15 Z M56.0773438,15 L59.8859375,15 L55.1496094,0.908203125 L50.7648438,0.908203125 L46.0285156,15 L49.6808594,15 L50.5792969,11.9042969 L55.1886719,11.9042969 L56.0773438,15 Z M52.8449219,3.89648438 L52.9230469,3.89648438 L54.4855469,9.32617188 L51.2726563,9.32617188 L52.8449219,3.89648438 Z M67.3988281,15.2441406 C71.0316406,15.2441406 73.6292969,13.0371094 73.7953125,9.6875 L70.3480469,9.6875 C70.1234375,11.3378906 68.9808594,12.3730469 67.4085937,12.3730469 C65.4359375,12.3730469 64.2054687,10.703125 64.2054687,7.93945312 C64.2054687,5.20507812 65.4457031,3.53515625 67.3988281,3.53515625 C68.9710937,3.53515625 70.1527344,4.62890625 70.3285156,6.2890625 L73.7757812,6.2890625 C73.6683594,2.95898438 70.9632812,0.6640625 67.3988281,0.6640625 C63.1996094,0.6640625 60.553125,3.34960938 60.553125,7.94921875 C60.553125,12.5585938 63.1800781,15.2441406 67.3988281,15.2441406 L67.3988281,15.2441406 Z M82.5875,15 L82.5875,3.79882812 L86.49375,3.79882812 L86.49375,0.908203125 L75.0972656,0.908203125 L75.0972656,3.79882812 L79.0035156,3.79882812 L79.0035156,15 L82.5875,15 Z M94.3972656,0.6640625 C90.1296875,0.6640625 87.434375,3.46679688 87.434375,7.95898438 C87.434375,12.4511719 90.1199219,15.2441406 94.3972656,15.2441406 C98.6648437,15.2441406 101.350391,12.4511719 101.350391,7.95898438 C101.350391,3.46679688 98.6648437,0.6640625 94.3972656,0.6640625 L94.3972656,0.6640625 Z M94.3972656,3.57421875 C96.3992187,3.57421875 97.7078125,5.2734375 97.7078125,7.95898438 C97.7078125,10.6347656 96.3992187,12.3339844 94.3972656,12.3339844 C92.3855469,12.3339844 91.0867187,10.6347656 91.0867187,7.95898438 C91.0867187,5.2734375 92.3953125,3.57421875 94.3972656,3.57421875 L94.3972656,3.57421875 Z M107.232422,3.61328125 L109.341797,3.61328125 C110.621094,3.61328125 111.451172,4.42382812 111.451172,5.625 C111.451172,6.84570312 110.669922,7.6171875 109.351562,7.6171875 L107.232422,7.6171875 L107.232422,3.61328125 Z M107.232422,10.0683594 L109.087891,10.0683594 L111.5,15 L115.523438,15 L112.710938,9.54101562 C114.253906,8.8671875 115.113281,7.28515625 115.113281,5.55664062 C115.113281,2.64648438 113.21875,0.908203125 109.703125,0.908203125 L103.648438,0.908203125 L103.648438,15 L107.232422,15 L107.232422,10.0683594 Z" id="Shape" fill="#313131"></path>
        </g>
    </g>
</svg>