<?xml version="1.0" encoding="UTF-8" standalone="no"?>
<svg width="60px" height="59px" viewBox="0 0 60 59" version="1.1" xmlns="http://www.w3.org/2000/svg" xmlns:xlink="http://www.w3.org/1999/xlink">
    <!-- Generator: Sketch 3.8.2 (29753) - http://www.bohemiancoding.com/sketch -->
    <title>Page 1</title>
    <desc>Created with Sketch.</desc>
    <defs></defs>
    <g id="Design" stroke="none" stroke-width="1" fill="none" fill-rule="evenodd" stroke-linecap="round" stroke-linejoin="round">
        <g id="design-with-content" transform="translate(-150.000000, -1632.000000)" stroke="#00ADEE">
            <g id="Page-1" transform="translate(150.000000, 1633.000000)">
                <path d="M51.7665405,33.7470811 L41.5138378,37.8141081 C38.1838378,39.1349189 34.4135676,37.506 33.0927568,34.176 L26.2454595,16.9162703 C24.9246486,13.5862703 26.5535676,9.816 29.8835676,8.49518919 L40.1362703,4.42816216 C43.4662703,3.10735135 47.2365405,4.73545946 48.5573514,8.06545946 L55.4046486,25.326 C56.7254595,28.656 55.0965405,32.4262703 51.7665405,33.7470811 L51.7665405,33.7470811 Z" id="Stroke-1"></path>
                <path d="M26.1428919,37.2167838 L15.4807297,7.97975676 C13.1958649,1.71381081 6.28127027,-1.53348649 -8.10810811e-05,0.710027027 L-8.10810811e-05,0.710027027" id="Stroke-3"></path>
                <path d="M43.0281081,43.8111081 L60,37.4502973" id="Stroke-5"></path>
                <path d="M38.1081081,50.1695676 C38.1081081,54.2001081 34.8413514,57.4668649 30.8108108,57.4668649 C26.7802703,57.4668649 23.5135135,54.2001081 23.5135135,50.1695676 C23.5135135,46.139027 26.7802703,42.8722703 30.8108108,42.8722703 C34.8413514,42.8722703 38.1081081,46.139027 38.1081081,50.1695676 L38.1081081,50.1695676 Z" id="Stroke-7"></path>
                <path d="M30.8108108,50.9803784 C30.3640541,50.9803784 30,50.6163243 30,50.1695676 C30,49.7228108 30.3640541,49.3587568 30.8108108,49.3587568 C31.2575676,49.3587568 31.6216216,49.7228108 31.6216216,50.1695676 C31.6216216,50.6163243 31.2575676,50.9803784 30.8108108,50.9803784 L30.8108108,50.9803784 Z" id="Stroke-9"></path>
            </g>
        </g>
    </g>
</svg>