<?xml version="1.0" encoding="UTF-8" standalone="no"?>
<svg width="47px" height="53px" viewBox="0 0 47 53" version="1.1" xmlns="http://www.w3.org/2000/svg" xmlns:xlink="http://www.w3.org/1999/xlink">
    <!-- Generator: Sketch 3.8.2 (29753) - http://www.bohemiancoding.com/sketch -->
    <title>10</title>
    <desc>Created with Sketch.</desc>
    <defs></defs>
    <g id="Design" stroke="none" stroke-width="1" fill="none" fill-rule="evenodd">
        <g id="factoring" transform="translate(-449.000000, -4737.000000)" stroke="#00ADEE">
            <g id="10" transform="translate(450.000000, 4738.000000)">
                <path d="M30.7879008,12.0200588 L14.4948092,12.0200588 C6.50851145,20.0067778 -3.42377863,32.5591176 1.68045802,41.7163399 C5.71396947,48.9534379 14.8328244,50.824719 23.6799618,50.7003595 C32.5270992,50.576 41.1021756,48.454268 44.0467557,41.7163399 C47.8119847,33.1019346 38.2077481,20.2042288 30.7879008,12.0200588 L30.7879008,12.0200588 Z M24.1313359,40.0102941 L24.1313359,42.5899739 L21.673855,42.5899739 L21.673855,40.1866144 C19.9937405,40.1114444 18.3641221,39.6555752 17.4108779,39.0992484 L18.1628244,36.1412941 C19.216374,36.7225621 20.6958779,37.2532549 22.3258397,37.2532549 C23.7548473,37.2532549 24.7331679,36.6976209 24.7331679,35.6854248 C24.7331679,34.7255359 23.9307252,34.1179412 22.0750763,33.4854052 C19.3915649,32.5750523 17.5616794,31.3103268 17.5616794,28.8577778 C17.5616794,26.6321242 19.1160687,24.887281 21.7995802,24.3562418 L21.7995802,21.954268 L24.2567176,21.954268 L24.2567176,24.1792288 C25.9368321,24.2554379 27.0659542,24.6098105 27.8931298,25.0144118 L27.165916,27.8715621 C26.5139313,27.5930523 25.3600763,27.0117843 23.5549237,27.0117843 C21.9249618,27.0117843 21.3980153,27.7194902 21.3980153,28.4282353 C21.3980153,29.2627255 22.275687,29.7937647 24.4071756,30.6026209 C27.3912595,31.6650458 28.5945802,33.0558627 28.5945802,35.3317451 C28.5949237,37.5826863 27.015458,39.5048889 24.1313359,40.0102941 L24.1313359,40.0102941 Z" id="Shape"></path>
                <path d="M35.6046183,1.63260784 C33.3690458,0.266039216 30.6178626,5.194 28.6540076,5.11779085 C26.6894656,5.0415817 25.1398855,0.179091503 22.8970992,0.258418301 C20.654313,0.337745098 19.7670229,4.7630719 17.9673664,5.17771895 C16.1677099,5.59236601 11.6817939,-0.0443398693 9.8821374,1.93536601 C8.42427481,3.53956863 12.8851145,9.95014379 14.6311832,12.3268301 L16.2264504,12.3268301 L29.2232061,12.3268301 L30.7174809,12.3268301 C32.5473664,9.80915686 37.4358779,2.75184314 35.6046183,1.63260784 L35.6046183,1.63260784 Z" id="Shape"></path>
            </g>
        </g>
    </g>
</svg>