<?xml version="1.0" encoding="UTF-8" standalone="no"?>
<svg width="53px" height="71px" viewBox="0 0 53 71" version="1.1" xmlns="http://www.w3.org/2000/svg" xmlns:xlink="http://www.w3.org/1999/xlink">
    <!-- Generator: Sketch 3.8.2 (29753) - http://www.bohemiancoding.com/sketch -->
    <title>6</title>
    <desc>Created with Sketch.</desc>
    <defs></defs>
    <g id="Design" stroke="none" stroke-width="1" fill="none" fill-rule="evenodd">
        <g id="factoring" transform="translate(-449.000000, -4398.000000)" stroke="#00ADEE">
            <path d="M460.165845,4421.00016 C460.456739,4421.00016 460.692556,4421.24046 460.692556,4421.53306 L460.692556,4467.20084 C460.692556,4467.49515 460.45076,4467.73374 460.165845,4467.73374 L450.597999,4467.73374 C450.307105,4467.73374 450.071289,4467.49344 450.071289,4467.20084 L450.071289,4421.53306 C450.071289,4421.23875 450.313085,4421.00016 450.597999,4421.00016 L460.165845,4421.00016 Z M473.442429,4421.00016 C473.733323,4421.00016 473.969139,4421.24046 473.969139,4421.53306 L473.969139,4467.20084 C473.969139,4467.49515 473.727343,4467.73374 473.442429,4467.73374 L463.874582,4467.73374 C463.583688,4467.73374 463.347872,4467.49344 463.347872,4467.20084 L463.347872,4421.53306 C463.347872,4421.23875 463.589669,4421.00016 463.874582,4421.00016 L473.442429,4421.00016 Z M486.719012,4421.00016 C487.009906,4421.00016 487.245722,4421.24046 487.245722,4421.53306 L487.245722,4467.20084 C487.245722,4467.49515 487.003926,4467.73374 486.719012,4467.73374 L477.151166,4467.73374 C476.860271,4467.73374 476.624455,4467.49344 476.624455,4467.20084 L476.624455,4421.53306 C476.624455,4421.23875 476.866252,4421.00016 477.151166,4421.00016 L486.719012,4421.00016 Z M499.995595,4421.00016 C500.286489,4421.00016 500.522305,4421.24046 500.522305,4421.53306 L500.522305,4467.20084 C500.522305,4467.49515 500.280509,4467.73374 499.995595,4467.73374 L490.427749,4467.73374 C490.136855,4467.73374 489.901039,4467.49344 489.901039,4467.20084 L489.901039,4421.53306 C489.901039,4421.23875 490.142835,4421.00016 490.427749,4421.00016 L499.995595,4421.00016 Z M479.864499,4414.23809 L487.613279,4406.48147 L479.598517,4399 L479.690235,4404.25451 L465.025929,4404.41959 C465.025929,4404.41959 463.97263,4404.43798 464.015381,4406.80248 C464.058132,4409.16699 465.108475,4409.14865 465.108475,4409.14865 L479.772781,4408.98358 L479.864499,4414.23809 Z" id="6"></path>
        </g>
    </g>
</svg>