<?xml version="1.0" encoding="UTF-8" standalone="no"?>
<svg width="61px" height="60px" viewBox="0 0 61 60" version="1.1" xmlns="http://www.w3.org/2000/svg" xmlns:xlink="http://www.w3.org/1999/xlink">
    <!-- Generator: Sketch 3.8.2 (29753) - http://www.bohemiancoding.com/sketch -->
    <title>5</title>
    <desc>Created with Sketch.</desc>
    <defs></defs>
    <g id="Design" stroke="none" stroke-width="1" fill="none" fill-rule="evenodd">
        <g id="factoring" transform="translate(-153.000000, -4408.000000)" stroke="#00ADEE">
            <path d="M172.83175,4416.22033 L168.983296,4411.29991 L167.176808,4424.19939 L180.143813,4425.56914 L176.295359,4420.64872 L185.158591,4413.73155 C185.158591,4413.73155 186.145737,4412.96115 184.412547,4410.74804 C182.679357,4408.53493 181.694983,4409.30317 181.694983,4409.30317 L172.83175,4416.22033 L172.83175,4416.22033 Z M201.539433,4412.12169 C201.197084,4412.12169 200.919556,4412.4042 200.919556,4412.74818 L200.919556,4466.437 C200.919556,4466.783 201.204122,4467.06349 201.539433,4467.06349 L212.799679,4467.06349 C213.142028,4467.06349 213.419556,4466.78098 213.419556,4466.437 L213.419556,4412.74818 C213.419556,4412.40218 213.134989,4412.12169 212.799679,4412.12169 L201.539433,4412.12169 L201.539433,4412.12169 Z M170.289433,4433.34921 C169.947084,4433.34921 169.669556,4433.63054 169.669556,4433.97779 L169.669556,4466.4349 C169.669556,4466.78206 169.954122,4467.06349 170.289433,4467.06349 L181.549679,4467.06349 C181.892027,4467.06349 182.169556,4466.78216 182.169556,4466.4349 L182.169556,4433.97779 C182.169556,4433.63063 181.88499,4433.34921 181.549679,4433.34921 L170.289433,4433.34921 L170.289433,4433.34921 Z M185.914433,4424.60847 C185.572084,4424.60847 185.294556,4424.8908 185.294556,4425.23325 L185.294556,4466.43871 C185.294556,4466.78377 185.579122,4467.06349 185.914433,4467.06349 L197.174679,4467.06349 C197.517027,4467.06349 197.794556,4466.78116 197.794556,4466.43871 L197.794556,4425.23325 C197.794556,4424.88819 197.50999,4424.60847 197.174679,4424.60847 L185.914433,4424.60847 L185.914433,4424.60847 Z M154.664433,4443.96296 C154.322084,4443.96296 154.044556,4444.23849 154.044556,4444.59283 L154.044556,4466.43363 C154.044556,4466.78149 154.329122,4467.06349 154.664433,4467.06349 L165.924679,4467.06349 C166.267027,4467.06349 166.544556,4466.78797 166.544556,4466.43363 L166.544556,4444.59283 C166.544556,4444.24496 166.25999,4443.96296 165.924679,4443.96296 L154.664433,4443.96296 L154.664433,4443.96296 Z" id="5" transform="translate(183.732056, 4438.118832) scale(-1, 1) translate(-183.732056, -4438.118832) "></path>
        </g>
    </g>
</svg>