<?xml version="1.0" encoding="UTF-8" standalone="no"?>
<svg width="55px" height="51px" viewBox="0 0 55 51" version="1.1" xmlns="http://www.w3.org/2000/svg" xmlns:xlink="http://www.w3.org/1999/xlink">
    <!-- Generator: Sketch 3.8.2 (29753) - http://www.bohemiancoding.com/sketch -->
    <title>8</title>
    <desc>Created with Sketch.</desc>
    <defs></defs>
    <g id="Design" stroke="none" stroke-width="1" fill="none" fill-rule="evenodd">
        <g id="factoring" transform="translate(-1010.000000, -4417.000000)" stroke="#00ADEE">
            <path d="M1057.51844,4420.26686 C1058.09177,4420.20916 1058.54109,4419.72945 1058.54109,4419.13914 C1058.54109,4418.51036 1058.03306,4418 1057.40581,4418 L1016.6615,4418 C1016.03485,4418 1015.52622,4418.50976 1015.52622,4419.13914 C1015.52622,4419.73486 1015.98332,4420.21757 1016.56384,4420.26807 L1010.5166,4440.69509 C1010.64061,4442.3482 1012.47024,4444.85972 1014.90975,4444.85972 C1015.33091,4444.85972 1015.55198,4444.7948 1016.1325,4444.66315 L1016.1325,4465.90291 C1016.1325,4466.67897 1016.81367,4467.30535 1017.5853,4467.30535 L1056.49699,4467.30535 C1057.26742,4467.30535 1057.94799,4466.67897 1057.94799,4465.90291 L1057.94799,4444.66315 C1058.52851,4444.7954 1058.74958,4444.87235 1059.17014,4444.87235 C1061.60965,4444.87235 1063.4273,4442.3482 1063.55131,4440.69449 L1057.51844,4420.26686 L1057.51844,4420.26686 Z M1055.04299,4451.48719 L1055.04299,4459.9445 C1055.04299,4460.76083 1054.34864,4461.42208 1053.53507,4461.42208 L1020.53583,4461.42208 C1019.72226,4461.42208 1019.0363,4460.76023 1019.0363,4459.9445 L1019.0363,4451.48719 L1019.0363,4443.00824 C1019.61682,4444.03557 1020.93782,4444.87415 1022.34989,4444.87415 C1023.95605,4444.87415 1025.2441,4443.78671 1026.00256,4442.57543 C1026.75981,4443.78671 1028.06823,4444.87415 1029.675,4444.87415 C1031.28116,4444.87415 1032.60037,4443.78671 1033.35702,4442.57543 C1034.11427,4443.78671 1035.43767,4444.87415 1037.04564,4444.87415 C1038.65181,4444.87415 1039.9782,4443.78671 1040.73665,4442.57543 C1041.4933,4443.78671 1042.82089,4444.87415 1044.42646,4444.87415 C1046.03443,4444.87415 1047.36142,4443.78671 1048.12047,4442.57543 C1048.87713,4443.78671 1050.12384,4444.87415 1051.7312,4444.87415 C1053.14387,4444.87415 1054.46307,4444.03497 1055.04359,4443.00824 L1055.04359,4451.48719 L1055.04299,4451.48719 Z" id="8"></path>
        </g>
    </g>
</svg>