<?xml version="1.0" encoding="UTF-8" standalone="no"?>
<svg width="54px" height="48px" viewBox="0 0 54 48" version="1.1" xmlns="http://www.w3.org/2000/svg" xmlns:xlink="http://www.w3.org/1999/xlink">
    <!-- Generator: Sketch 3.8.2 (29753) - http://www.bohemiancoding.com/sketch -->
    <title>Page 1</title>
    <desc>Created with Sketch.</desc>
    <defs></defs>
    <g id="Design" stroke="none" stroke-width="1" fill="none" fill-rule="evenodd" stroke-linecap="round" stroke-linejoin="round">
        <g id="design-with-content" transform="translate(-639.000000, -3737.000000)" stroke="#54D98D">
            <g id="Group-5" transform="translate(133.000000, 3388.000000)">
                <g id="Page-1" transform="translate(507.000000, 350.000000)">
                    <path d="M48.0434783,36.2149478 L48.0434783,41.3019043 C48.0434783,43.7990348 46.0188696,45.8236435 43.5217391,45.8236435 L4.52173913,45.8236435 C2.0246087,45.8236435 0,43.7990348 0,41.3019043 L0,14.1714696 C0,11.6743391 2.0246087,9.64973043 4.52173913,9.64973043 L43.5217391,9.64973043 C46.0188696,9.64973043 48.0434783,11.6743391 48.0434783,14.1714696 L48.0434783,18.1279913" id="Stroke-1"></path>
                    <path d="M4.52173913,9.64973043 L35.9359565,0.215121739 C38.851913,-0.71013913 41.826087,1.46594783 41.826087,4.52490435 L41.826087,5.1279913" id="Stroke-3"></path>
                    <path d="M52.0008693,31.6932087 L45.7829747,31.6932087 C43.2856422,31.6932087 41.2608696,29.6686 41.2608696,27.1714696 L41.2608696,27.1714696 C41.2608696,24.6743391 43.2856422,22.6497304 45.7829747,22.6497304 L52.0008693,22.6497304 L52.0008693,31.6932087 L52.0008693,31.6932087 Z" id="Stroke-5"></path>
                </g>
            </g>
        </g>
    </g>
</svg>