<?xml version="1.0" encoding="UTF-8" standalone="no"?>
<svg width="59px" height="59px" viewBox="0 0 59 59" version="1.1" xmlns="http://www.w3.org/2000/svg" xmlns:xlink="http://www.w3.org/1999/xlink">
    <!-- Generator: Sketch 3.8.2 (29753) - http://www.bohemiancoding.com/sketch -->
    <title>9</title>
    <desc>Created with Sketch.</desc>
    <defs></defs>
    <g id="Design" stroke="none" stroke-width="1" fill="none" fill-rule="evenodd">
        <g id="factoring" transform="translate(-149.000000, -4728.000000)" stroke="#00ADEE">
            <path d="M207,4757.5 C207,4773.23998 194.23998,4786 178.5,4786 C162.76002,4786 150,4773.23998 150,4757.5 C150,4741.76002 162.76002,4729 178.5,4729 C194.23998,4729 207,4741.76002 207,4757.5 L207,4757.5 Z M163.69368,4756.10065 C163.82535,4752.10951 164.51676,4748.29165 165.67614,4744.76164 L156.15543,4744.75081 C154.22484,4748.1292 153.03696,4751.98639 152.81637,4756.10065 L163.69368,4756.10065 L163.69368,4756.10065 Z M177.10863,4744.75195 L168.62361,4744.75195 C167.35935,4748.29336 166.6155,4752.10381 166.47471,4756.10065 L177.10806,4756.10065 L177.10806,4744.75195 L177.10863,4744.75195 Z M177.10863,4731.81409 C174.11271,4734.49195 171.58362,4737.95242 169.7562,4741.94413 L177.10863,4741.94413 L177.10863,4731.81409 L177.10863,4731.81409 Z M157.99824,4741.94356 L166.7295,4741.94356 C168.19839,4738.43293 170.2179,4735.17823 172.54407,4732.48384 C166.53855,4733.83816 161.40057,4737.45994 157.99824,4741.94356 L157.99824,4741.94356 Z M204.18363,4756.10065 C203.96304,4751.98582 202.77459,4748.1292 200.84457,4744.75081 L191.32272,4744.76164 C192.48267,4748.29165 193.17408,4752.10951 193.30575,4756.10065 L204.18363,4756.10065 L204.18363,4756.10065 Z M179.89137,4756.10065 L190.52529,4756.10065 C190.3845,4752.10381 189.64008,4748.29336 188.37582,4744.75195 L179.89137,4744.75195 L179.89137,4756.10065 L179.89137,4756.10065 Z M179.89137,4741.94356 L187.24437,4741.94356 C185.41638,4737.95185 182.88729,4734.49138 179.89137,4731.81352 L179.89137,4741.94356 L179.89137,4741.94356 Z M184.45536,4732.48441 C186.7821,4735.1788 188.80218,4738.4335 190.2705,4741.94356 L199.00176,4741.94356 C195.6,4737.45994 190.46259,4733.83816 184.45536,4732.48441 L184.45536,4732.48441 Z M152.81637,4758.89935 C153.03696,4763.01304 154.22484,4766.8708 156.15543,4770.24805 L165.67614,4770.23779 C164.51676,4766.70835 163.82535,4762.88992 163.69368,4758.89878 L152.81637,4758.89878 L152.81637,4758.89935 Z M177.10863,4758.89935 L166.47471,4758.89935 C166.6155,4762.89676 167.35935,4766.70664 168.62361,4770.24805 L177.10863,4770.24805 L177.10863,4758.89935 L177.10863,4758.89935 Z M177.10863,4773.05644 L169.75563,4773.05644 C171.58362,4777.04872 174.11214,4780.50862 177.10806,4783.18591 L177.10806,4773.05644 L177.10863,4773.05644 Z M172.54407,4782.51559 C170.2179,4779.82006 168.19782,4776.5665 166.7295,4773.05587 L157.99824,4773.05587 C161.40057,4777.53949 166.53855,4781.16127 172.54407,4782.51559 L172.54407,4782.51559 Z M193.30518,4758.89935 C193.17408,4762.89049 192.48267,4766.70835 191.32215,4770.23836 L200.844,4770.24862 C202.77459,4766.87137 203.96304,4763.01361 204.18306,4758.89992 L193.30518,4758.89992 L193.30518,4758.89935 Z M179.89137,4770.24805 L188.37639,4770.24805 C189.64065,4766.70664 190.3845,4762.89676 190.52586,4758.89935 L179.89137,4758.89935 L179.89137,4770.24805 L179.89137,4770.24805 Z M179.89137,4783.18591 C182.88786,4780.50862 185.41638,4777.04815 187.24437,4773.05644 L179.89137,4773.05644 L179.89137,4783.18591 L179.89137,4783.18591 Z M199.00176,4773.05644 L190.2705,4773.05644 C188.80218,4776.56707 186.7821,4779.82063 184.45536,4782.51616 C190.46259,4781.16127 195.6,4777.53949 199.00176,4773.05644 L199.00176,4773.05644 Z" id="9"></path>
        </g>
    </g>
</svg>