<?xml version="1.0" encoding="UTF-8" standalone="no"?>
<svg width="49px" height="36px" viewBox="0 0 49 36" version="1.1" xmlns="http://www.w3.org/2000/svg" xmlns:xlink="http://www.w3.org/1999/xlink">
    <!-- Generator: Sketch 3.8.1 (29687) - http://www.bohemiancoding.com/sketch -->
    <title>Page 1</title>
    <desc>Created with Sketch.</desc>
    <defs>
        <polygon id="path-1" points="35.3436522 0.255193783 0.390479002 0.255193783 0.390479002 35.577659 35.3436522 35.577659 35.3436522 0.255193783"></polygon>
    </defs>
    <g id="Design" stroke="none" stroke-width="1" fill="none" fill-rule="evenodd">
        <g id="design" transform="translate(-150.000000, -51.000000)">
            <g id="Page-1" transform="translate(150.000000, 51.000000)">
                <polygon id="Fill-1" fill="#0027E8" points="0 34.7273938 10.8659562 34.7273938 10.8659562 1.34532365 0 1.34532365"></polygon>
                <g id="Group-4" transform="translate(13.473786, 0.183994)">
                    <mask id="mask-2" fill="white">
                        <use xlink:href="#path-1"></use>
                    </mask>
                    <g id="Clip-3"></g>
                    <path d="M17.8672829,9.6326649 C13.3474798,9.6326649 9.67044023,13.3490067 9.67044023,17.9165801 C9.67044023,22.4845928 13.3474798,26.2004954 17.8672829,26.2004954 C22.3870861,26.2004954 26.0641257,22.4845928 26.0641257,17.9165801 C26.0641257,13.3490067 22.3870861,9.6326649 17.8672829,9.6326649 M17.8672829,35.577659 C8.23048371,35.577659 0.390479002,27.6552317 0.390479002,17.9165801 C0.390479002,8.17792856 8.23048371,0.255062014 17.8672829,0.255062014 C27.5036475,0.255062014 35.3436522,8.17792856 35.3436522,17.9165801 C35.3436522,27.6552317 27.5036475,35.577659 17.8672829,35.577659" id="Fill-2" fill="#00D47F" mask="url(#mask-2)"></path>
                </g>
            </g>
        </g>
    </g>
</svg>