<?xml version="1.0" encoding="UTF-8" standalone="no"?>
<svg width="137px" height="16px" viewBox="0 0 137 16" version="1.1" xmlns="http://www.w3.org/2000/svg" xmlns:xlink="http://www.w3.org/1999/xlink">
    <!-- Generator: Sketch 3.8.3 (29802) - http://www.bohemiancoding.com/sketch -->
    <title>black</title>
    <desc>Created with Sketch.</desc>
    <defs></defs>
    <g id="Design" stroke="none" stroke-width="1" fill="none" fill-rule="evenodd">
        <g id="Group-17">
            <path d="M3.6484375,0.908203125 L0.064453125,0.908203125 L0.064453125,10 C0.064453125,13.1640625 2.46679687,15.2441406 6.13867187,15.2441406 C9.80078125,15.2441406 12.203125,13.1640625 12.203125,10 L12.203125,0.908203125 L8.61914062,0.908203125 L8.61914062,9.61914062 C8.61914062,11.2597656 7.73046875,12.2363281 6.13867187,12.2363281 C4.53710938,12.2363281 3.6484375,11.2597656 3.6484375,9.61914062 L3.6484375,0.908203125 Z M18.3138021,15 L18.3138021,6.72851562 L18.3919271,6.72851562 L24.3977865,15 L27.2298177,15 L27.2298177,0.908203125 L23.8313802,0.908203125 L23.8313802,9.1015625 L23.7532552,9.1015625 L17.7766927,0.908203125 L14.9153646,0.908203125 L14.9153646,15 L18.3138021,15 Z M33.5260417,15 L33.5260417,0.908203125 L29.9420574,0.908203125 L29.9420574,15 L33.5260417,15 Z" id="UNI" fill="#2618FF"></path>
            <path d="M45.3320312,15 L49.140625,15 L44.4042969,0.908203125 L40.0195312,0.908203125 L35.2832031,15 L38.9355469,15 L39.8339844,11.9042969 L44.4433594,11.9042969 L45.3320312,15 Z M42.0996094,3.89648438 L42.1777344,3.89648438 L43.7402344,9.32617188 L40.5273438,9.32617188 L42.0996094,3.89648438 Z M56.6535156,15.2441406 C60.2863281,15.2441406 62.8839844,13.0371094 63.05,9.6875 L59.6027344,9.6875 C59.378125,11.3378906 58.2355469,12.3730469 56.6632813,12.3730469 C54.690625,12.3730469 53.4601563,10.703125 53.4601563,7.93945312 C53.4601563,5.20507812 54.7003906,3.53515625 56.6535156,3.53515625 C58.2257813,3.53515625 59.4074219,4.62890625 59.5832031,6.2890625 L63.0304688,6.2890625 C62.9230469,2.95898438 60.2179688,0.6640625 56.6535156,0.6640625 C52.4542969,0.6640625 49.8078125,3.34960938 49.8078125,7.94921875 C49.8078125,12.5585938 52.4347656,15.2441406 56.6535156,15.2441406 L56.6535156,15.2441406 Z M71.7347656,15.2441406 C75.3675781,15.2441406 77.9652344,13.0371094 78.13125,9.6875 L74.6839844,9.6875 C74.459375,11.3378906 73.3167969,12.3730469 71.7445312,12.3730469 C69.771875,12.3730469 68.5414062,10.703125 68.5414062,7.93945312 C68.5414062,5.20507812 69.7816406,3.53515625 71.7347656,3.53515625 C73.3070312,3.53515625 74.4886719,4.62890625 74.6644531,6.2890625 L78.1117187,6.2890625 C78.0042969,2.95898438 75.2992187,0.6640625 71.7347656,0.6640625 C67.5355469,0.6640625 64.8890625,3.34960938 64.8890625,7.94921875 C64.8890625,12.5585938 67.5160156,15.2441406 71.7347656,15.2441406 L71.7347656,15.2441406 Z M86.9332031,0.6640625 C82.665625,0.6640625 79.9703125,3.46679688 79.9703125,7.95898438 C79.9703125,12.4511719 82.6558594,15.2441406 86.9332031,15.2441406 C91.2007813,15.2441406 93.8863281,12.4511719 93.8863281,7.95898438 C93.8863281,3.46679688 91.2007813,0.6640625 86.9332031,0.6640625 L86.9332031,0.6640625 Z M86.9332031,3.57421875 C88.9351563,3.57421875 90.24375,5.2734375 90.24375,7.95898438 C90.24375,10.6347656 88.9351563,12.3339844 86.9332031,12.3339844 C84.9214844,12.3339844 83.6226563,10.6347656 83.6226563,7.95898438 C83.6226563,5.2734375 84.93125,3.57421875 86.9332031,3.57421875 L86.9332031,3.57421875 Z M99.7683594,0.908203125 L96.184375,0.908203125 L96.184375,10 C96.184375,13.1640625 98.5867187,15.2441406 102.258594,15.2441406 C105.920703,15.2441406 108.323047,13.1640625 108.323047,10 L108.323047,0.908203125 L104.739062,0.908203125 L104.739062,9.61914062 C104.739062,11.2597656 103.850391,12.2363281 102.258594,12.2363281 C100.657031,12.2363281 99.7683594,11.2597656 99.7683594,9.61914062 L99.7683594,0.908203125 Z M114.400391,15 L114.400391,6.72851562 L114.478516,6.72851562 L120.484375,15 L123.316406,15 L123.316406,0.908203125 L119.917969,0.908203125 L119.917969,9.1015625 L119.839844,9.1015625 L113.863281,0.908203125 L111.001953,0.908203125 L111.001953,15 L114.400391,15 Z M132.870313,15 L132.870313,3.79882812 L136.776563,3.79882812 L136.776563,0.908203125 L125.380078,0.908203125 L125.380078,3.79882812 L129.286328,3.79882812 L129.286328,15 L132.870313,15 Z" id="Shape" fill="#212121"></path>
        </g>
    </g>
</svg>