<?xml version="1.0" encoding="UTF-8" standalone="no"?>
<svg width="137px" height="15px" viewBox="0 0 137 15" version="1.1" xmlns="http://www.w3.org/2000/svg" xmlns:xlink="http://www.w3.org/1999/xlink">
    <!-- Generator: Sketch 3.8.3 (29802) - http://www.bohemiancoding.com/sketch -->
    <title>white</title>
    <desc>Created with Sketch.</desc>
    <defs></defs>
    <g id="Design" stroke="none" stroke-width="1" fill="none" fill-rule="evenodd">
        <g id="Group-16">
            <path d="M3.58398437,0 L0,0 L0,9.09179688 C0,12.2558594 2.40234375,14.3359375 6.07421875,14.3359375 C9.73632812,14.3359375 12.1386719,12.2558594 12.1386719,9.09179688 L12.1386719,0 L8.5546875,0 L8.5546875,8.7109375 C8.5546875,10.3515625 7.66601562,11.328125 6.07421875,11.328125 C4.47265625,11.328125 3.58398437,10.3515625 3.58398437,8.7109375 L3.58398437,0 Z M18.249349,14.0917969 L18.249349,5.8203125 L18.327474,5.8203125 L24.3333334,14.0917969 L27.1653646,14.0917969 L27.1653646,0 L23.7669271,0 L23.7669271,8.19335938 L23.6888021,8.19335938 L17.7122396,0 L14.8509115,0 L14.8509115,14.0917969 L18.249349,14.0917969 Z M33.4615886,14.0917969 L33.4615886,0 L29.8776042,0 L29.8776042,14.0917969 L33.4615886,14.0917969 Z" id="UNI" fill="#2618FF"></path>
            <path d="M45.0488281,14.3359375 L48.8574219,14.3359375 L44.1210938,0.244140625 L39.7363281,0.244140625 L35,14.3359375 L38.6523438,14.3359375 L39.5507812,11.2402344 L44.1601562,11.2402344 L45.0488281,14.3359375 Z M41.8164062,3.23242188 L41.8945312,3.23242188 L43.4570312,8.66210938 L40.2441406,8.66210938 L41.8164062,3.23242188 Z M56.3703125,14.5800781 C60.003125,14.5800781 62.6007813,12.3730469 62.7667969,9.0234375 L59.3195313,9.0234375 C59.0949219,10.6738281 57.9523438,11.7089844 56.3800781,11.7089844 C54.4074219,11.7089844 53.1769531,10.0390625 53.1769531,7.27539062 C53.1769531,4.54101562 54.4171875,2.87109375 56.3703125,2.87109375 C57.9425781,2.87109375 59.1242188,3.96484375 59.3,5.625 L62.7472656,5.625 C62.6398438,2.29492188 59.9347656,0 56.3703125,0 C52.1710938,0 49.5246094,2.68554688 49.5246094,7.28515625 C49.5246094,11.8945312 52.1515625,14.5800781 56.3703125,14.5800781 L56.3703125,14.5800781 Z M71.4515625,14.5800781 C75.084375,14.5800781 77.6820312,12.3730469 77.8480469,9.0234375 L74.4007812,9.0234375 C74.1761719,10.6738281 73.0335937,11.7089844 71.4613281,11.7089844 C69.4886719,11.7089844 68.2582031,10.0390625 68.2582031,7.27539062 C68.2582031,4.54101562 69.4984375,2.87109375 71.4515625,2.87109375 C73.0238281,2.87109375 74.2054687,3.96484375 74.38125,5.625 L77.8285156,5.625 C77.7210937,2.29492188 75.0160156,0 71.4515625,0 C67.2523437,0 64.6058594,2.68554688 64.6058594,7.28515625 C64.6058594,11.8945312 67.2328125,14.5800781 71.4515625,14.5800781 L71.4515625,14.5800781 Z M86.65,0 C82.3824219,0 79.6871094,2.80273438 79.6871094,7.29492188 C79.6871094,11.7871094 82.3726563,14.5800781 86.65,14.5800781 C90.9175781,14.5800781 93.603125,11.7871094 93.603125,7.29492188 C93.603125,2.80273438 90.9175781,0 86.65,0 L86.65,0 Z M86.65,2.91015625 C88.6519531,2.91015625 89.9605469,4.609375 89.9605469,7.29492188 C89.9605469,9.97070312 88.6519531,11.6699219 86.65,11.6699219 C84.6382813,11.6699219 83.3394531,9.97070312 83.3394531,7.29492188 C83.3394531,4.609375 84.6480469,2.91015625 86.65,2.91015625 L86.65,2.91015625 Z M99.4851562,0.244140625 L95.9011719,0.244140625 L95.9011719,9.3359375 C95.9011719,12.5 98.3035156,14.5800781 101.975391,14.5800781 C105.6375,14.5800781 108.039844,12.5 108.039844,9.3359375 L108.039844,0.244140625 L104.455859,0.244140625 L104.455859,8.95507812 C104.455859,10.5957031 103.567187,11.5722656 101.975391,11.5722656 C100.373828,11.5722656 99.4851562,10.5957031 99.4851562,8.95507812 L99.4851562,0.244140625 Z M114.117188,14.3359375 L114.117188,6.06445312 L114.195312,6.06445312 L120.201172,14.3359375 L123.033203,14.3359375 L123.033203,0.244140625 L119.634766,0.244140625 L119.634766,8.4375 L119.556641,8.4375 L113.580078,0.244140625 L110.71875,0.244140625 L110.71875,14.3359375 L114.117188,14.3359375 Z M132.587109,14.3359375 L132.587109,3.13476562 L136.493359,3.13476562 L136.493359,0.244140625 L125.096875,0.244140625 L125.096875,3.13476562 L129.003125,3.13476562 L129.003125,14.3359375 L132.587109,14.3359375 Z" id="Shape" fill="#FFFFFF"></path>
        </g>
    </g>
</svg>