<?xml version="1.0" encoding="UTF-8" standalone="no"?>
<svg width="123px" height="15px" viewBox="0 0 123 15" version="1.1" xmlns="http://www.w3.org/2000/svg" xmlns:xlink="http://www.w3.org/1999/xlink">
    <!-- Generator: Sketch 3.8.1 (29687) - http://www.bohemiancoding.com/sketch -->
    <title>darklogo</title>
    <desc>Created with Sketch.</desc>
    <defs></defs>
    <g id="Design" stroke="none" stroke-width="1" fill="none" fill-rule="evenodd">
        <g id="Group-8">
            <path d="M3.58398437,0 L0,0 L0,9.09179688 C0,12.2558594 2.40234375,14.3359375 6.07421875,14.3359375 C9.73632812,14.3359375 12.1386719,12.2558594 12.1386719,9.09179688 L12.1386719,0 L8.5546875,0 L8.5546875,8.7109375 C8.5546875,10.3515625 7.66601562,11.328125 6.07421875,11.328125 C4.47265625,11.328125 3.58398437,10.3515625 3.58398437,8.7109375 L3.58398437,0 Z M18.249349,14.0917969 L18.249349,5.8203125 L18.327474,5.8203125 L24.3333334,14.0917969 L27.1653646,14.0917969 L27.1653646,0 L23.7669271,0 L23.7669271,8.19335938 L23.6888021,8.19335938 L17.7122396,0 L14.8509115,0 L14.8509115,14.0917969 L18.249349,14.0917969 Z M33.4615886,14.0917969 L33.4615886,0 L29.8776042,0 L29.8776042,14.0917969 L33.4615886,14.0917969 Z" id="UNI" fill="#00D47F"></path>
            <path d="M45.4140625,11.4453125 L39.5839844,11.4453125 L39.5839844,0.244140625 L36,0.244140625 L36,14.3359375 L45.4140625,14.3359375 L45.4140625,11.4453125 Z M57.2628906,11.4453125 L51.1886719,11.4453125 L51.1886719,8.57421875 L56.9015625,8.57421875 L56.9015625,5.9375 L51.1886719,5.9375 L51.1886719,3.13476562 L57.2628906,3.13476562 L57.2628906,0.244140625 L47.6046875,0.244140625 L47.6046875,14.3359375 L57.2628906,14.3359375 L57.2628906,11.4453125 Z M69.1019531,14.3359375 L72.9105469,14.3359375 L68.1742187,0.244140625 L63.7894531,0.244140625 L59.053125,14.3359375 L62.7054687,14.3359375 L63.6039062,11.2402344 L68.2132812,11.2402344 L69.1019531,14.3359375 Z M65.8695312,3.23242188 L65.9476562,3.23242188 L67.5101562,8.66210938 L64.2972656,8.66210938 L65.8695312,3.23242188 Z M73.9097656,10.2539062 C73.9488281,12.9882812 76.165625,14.5800781 79.759375,14.5800781 C83.3921875,14.5800781 85.7066406,12.7929688 85.7066406,9.99023438 C85.7066406,7.76367188 84.4566406,6.50390625 81.6734375,5.96679688 L79.8472656,5.625 C78.3726563,5.32226562 77.7476563,4.90234375 77.7476563,4.140625 C77.7476563,3.28125 78.5777344,2.71484375 79.8277344,2.71484375 C81.1167969,2.71484375 82.0640625,3.33007812 82.1324219,4.35546875 L85.4332031,4.35546875 C85.3941406,1.70898438 83.3140625,0 79.7886719,0 C76.5269531,0 74.1832031,1.7578125 74.1832031,4.4921875 C74.1832031,6.63085938 75.5210938,8.03710938 78.11875,8.53515625 L79.9644531,8.89648438 C81.5660156,9.22851562 82.1617188,9.609375 82.1617188,10.390625 C82.1617188,11.2402344 81.2535156,11.8652344 79.8570313,11.8652344 C78.5289063,11.8652344 77.4449219,11.2207031 77.3179688,10.2539062 L73.9097656,10.2539062 Z M91.5203125,14.3359375 L91.5203125,0.244140625 L87.9363281,0.244140625 L87.9363281,14.3359375 L91.5203125,14.3359375 Z M97.5976562,14.3359375 L97.5976562,6.06445312 L97.6757812,6.06445312 L103.681641,14.3359375 L106.513672,14.3359375 L106.513672,0.244140625 L103.115234,0.244140625 L103.115234,8.4375 L103.037109,8.4375 L97.0605469,0.244140625 L94.1992188,0.244140625 L94.1992188,14.3359375 L97.5976562,14.3359375 Z M122.161328,8.37890625 L122.161328,6.65039062 L116.126172,6.65039062 L116.126172,9.11132812 L118.704297,9.11132812 L118.694531,9.32617188 C118.596875,10.7421875 117.464063,11.6992188 115.842969,11.6992188 C113.782422,11.6992188 112.454297,10.0097656 112.454297,7.21679688 C112.454297,4.47265625 113.655469,2.88085938 115.686719,2.88085938 C117.063672,2.88085938 118.118359,3.64257812 118.469922,4.89257812 L122.014844,4.89257812 C121.653516,2.02148438 119.094922,0 115.676953,0 C111.419141,0 108.801953,2.6953125 108.801953,7.265625 C108.801953,11.8945312 111.419141,14.5800781 115.764844,14.5800781 C119.778516,14.5800781 122.161328,12.2265625 122.161328,8.37890625 L122.161328,8.37890625 Z" id="Shape" fill="#212121"></path>
        </g>
    </g>
</svg>