<?xml version="1.0" encoding="UTF-8" standalone="no"?>
<svg width="123px" height="16px" viewBox="0 0 123 16" version="1.1" xmlns="http://www.w3.org/2000/svg" xmlns:xlink="http://www.w3.org/1999/xlink">
    <!-- Generator: Sketch 3.8.1 (29687) - http://www.bohemiancoding.com/sketch -->
    <title>whitelogo</title>
    <desc>Created with Sketch.</desc>
    <defs></defs>
    <g id="Design" stroke="none" stroke-width="1" fill="none" fill-rule="evenodd">
        <g id="Group-18">
            <path d="M3.6484375,0.908203125 L0.064453125,0.908203125 L0.064453125,10 C0.064453125,13.1640625 2.46679687,15.2441406 6.13867187,15.2441406 C9.80078125,15.2441406 12.203125,13.1640625 12.203125,10 L12.203125,0.908203125 L8.61914062,0.908203125 L8.61914062,9.61914062 C8.61914062,11.2597656 7.73046875,12.2363281 6.13867187,12.2363281 C4.53710938,12.2363281 3.6484375,11.2597656 3.6484375,9.61914062 L3.6484375,0.908203125 Z M18.3138021,15 L18.3138021,6.72851562 L18.3919271,6.72851562 L24.3977865,15 L27.2298177,15 L27.2298177,0.908203125 L23.8313802,0.908203125 L23.8313802,9.1015625 L23.7532552,9.1015625 L17.7766927,0.908203125 L14.9153646,0.908203125 L14.9153646,15 L18.3138021,15 Z M33.5260417,15 L33.5260417,0.908203125 L29.9420574,0.908203125 L29.9420574,15 L33.5260417,15 Z" id="UNI" fill="#00D47F"></path>
            <path d="M45.4785156,12.109375 L39.6484375,12.109375 L39.6484375,0.908203125 L36.0644531,0.908203125 L36.0644531,15 L45.4785156,15 L45.4785156,12.109375 Z M57.3273438,12.109375 L51.253125,12.109375 L51.253125,9.23828125 L56.9660156,9.23828125 L56.9660156,6.6015625 L51.253125,6.6015625 L51.253125,3.79882812 L57.3273438,3.79882812 L57.3273438,0.908203125 L47.6691406,0.908203125 L47.6691406,15 L57.3273438,15 L57.3273438,12.109375 Z M69.1664062,15 L72.975,15 L68.2386719,0.908203125 L63.8539062,0.908203125 L59.1175781,15 L62.7699219,15 L63.6683594,11.9042969 L68.2777344,11.9042969 L69.1664062,15 Z M65.9339844,3.89648438 L66.0121094,3.89648438 L67.5746094,9.32617188 L64.3617187,9.32617188 L65.9339844,3.89648438 Z M73.9742188,10.9179688 C74.0132813,13.6523438 76.2300781,15.2441406 79.8238281,15.2441406 C83.4566406,15.2441406 85.7710938,13.4570312 85.7710938,10.6542969 C85.7710938,8.42773438 84.5210938,7.16796875 81.7378906,6.63085938 L79.9117188,6.2890625 C78.4371094,5.98632812 77.8121094,5.56640625 77.8121094,4.8046875 C77.8121094,3.9453125 78.6421875,3.37890625 79.8921875,3.37890625 C81.18125,3.37890625 82.1285156,3.99414062 82.196875,5.01953125 L85.4976563,5.01953125 C85.4585938,2.37304688 83.3785156,0.6640625 79.853125,0.6640625 C76.5914063,0.6640625 74.2476563,2.421875 74.2476563,5.15625 C74.2476563,7.29492188 75.5855469,8.70117188 78.1832031,9.19921875 L80.0289063,9.56054688 C81.6304688,9.89257812 82.2261719,10.2734375 82.2261719,11.0546875 C82.2261719,11.9042969 81.3179688,12.5292969 79.9214844,12.5292969 C78.5933594,12.5292969 77.509375,11.8847656 77.3824219,10.9179688 L73.9742188,10.9179688 Z M91.5847656,15 L91.5847656,0.908203125 L88.0007812,0.908203125 L88.0007812,15 L91.5847656,15 Z M97.6621094,15 L97.6621094,6.72851562 L97.7402344,6.72851562 L103.746094,15 L106.578125,15 L106.578125,0.908203125 L103.179688,0.908203125 L103.179688,9.1015625 L103.101562,9.1015625 L97.125,0.908203125 L94.2636719,0.908203125 L94.2636719,15 L97.6621094,15 Z M122.225781,9.04296875 L122.225781,7.31445312 L116.190625,7.31445312 L116.190625,9.77539062 L118.76875,9.77539062 L118.758984,9.99023438 C118.661328,11.40625 117.528516,12.3632812 115.907422,12.3632812 C113.846875,12.3632812 112.51875,10.6738281 112.51875,7.88085938 C112.51875,5.13671875 113.719922,3.54492188 115.751172,3.54492188 C117.128125,3.54492188 118.182813,4.30664062 118.534375,5.55664062 L122.079297,5.55664062 C121.717969,2.68554688 119.159375,0.6640625 115.741406,0.6640625 C111.483594,0.6640625 108.866406,3.359375 108.866406,7.9296875 C108.866406,12.5585938 111.483594,15.2441406 115.829297,15.2441406 C119.842969,15.2441406 122.225781,12.890625 122.225781,9.04296875 L122.225781,9.04296875 Z" id="Shape" fill="#FFFFFF"></path>
        </g>
    </g>
</svg>